<?xml version="1.0" encoding="UTF-8" standalone="no"?>
<!-- Created with Inkscape (http://www.inkscape.org/) -->

<svg
   version="1.1"
   id="svg2"
   width="377.95999"
   height="377.94666"
   viewBox="0 0 377.95999 377.94666"
   sodipodi:docname="ox_brand_black_pos.eps"
   xmlns:inkscape="http://www.inkscape.org/namespaces/inkscape"
   xmlns:sodipodi="http://sodipodi.sourceforge.net/DTD/sodipodi-0.dtd"
   xmlns="http://www.w3.org/2000/svg"
   xmlns:svg="http://www.w3.org/2000/svg">
  <defs
     id="defs6" />
  <sodipodi:namedview
     id="namedview4"
     pagecolor="#ffffff"
     bordercolor="#000000"
     borderopacity="0.25"
     inkscape:showpageshadow="2"
     inkscape:pageopacity="0.0"
     inkscape:pagecheckerboard="0"
     inkscape:deskcolor="#d1d1d1" />
  <g
     id="g8"
     inkscape:groupmode="layer"
     inkscape:label="ink_ext_XXXXXX"
     transform="matrix(1.3333333,0,0,-1.3333333,0,377.94667)">
    <g
       id="g10"
       transform="scale(0.1)">
      <path
         d="M 2834.67,0 H 0 V 2834.64 H 2834.67 V 0"
         style="fill:#231f20;fill-opacity:1;fill-rule:nonzero;stroke:none"
         id="path12" />
      <path
         d="m 561.02,476.578 c 0,98.922 -47.969,167.934 -128.868,167.934 -87.949,0 -128.964,-82.883 -128.964,-167.934 0,-98.848 47.988,-167.816 128.964,-167.816 87.93,0 128.868,82.867 128.868,167.816 v 0 z m 60,1.973 c 0,-108.781 -83.965,-187.77 -188.868,-187.77 -106.953,0 -188.906,79.879 -188.906,183.879 0,108.86 83.945,187.84 188.906,187.84 106.934,0 188.868,-79.969 188.868,-183.949 v 0 0"
         style="fill:#ffffff;fill-opacity:1;fill-rule:nonzero;stroke:none"
         id="path14" />
      <path
         d="m 1714.36,476.578 c 0,98.922 -48.01,167.934 -128.93,167.934 -87.95,0 -128.91,-82.883 -128.91,-167.934 0,-98.848 47.97,-167.816 128.91,-167.816 87.93,0 128.93,82.867 128.93,167.816 v 0 z m 59.94,1.973 c 0,-108.781 -83.95,-187.77 -188.87,-187.77 -106.95,0 -188.92,79.879 -188.92,183.879 0,108.86 83.98,187.84 188.92,187.84 106.93,0 188.87,-79.969 188.87,-183.949 v 0 0"
         style="fill:#ffffff;fill-opacity:1;fill-rule:nonzero;stroke:none"
         id="path16" />
      <path
         d="m 2003.16,416.73 c -20.99,29.969 -29,40.911 -54.96,40.911 h -28 v -121.93 c 0,-10 4,-14.91 15.01,-16.949 l 40.96,-8.981 v -13.062 h -160.9 v 13.062 l 37,8.981 c 10.95,2.949 14.96,6.949 14.96,16.949 v 281.828 c 0,10.02 -4.01,13.981 -14.96,16.961 l -37,9.012 v 13.027 h 156.9 c 33.01,0 55.97,-3.027 74.96,-9.98 38.98,-15.039 60.96,-52.071 60.96,-86.95 0,-44.031 -32.97,-81.058 -87.95,-93.91 v -2 c 11.01,-5.097 16.99,-12.051 55.97,-63.078 l 48.97,-64.91 c 6.99,-10 15.99,-15.93 26.99,-17.981 l 35.98,-7.949 v -13.062 h -85.94 c -10,0 -15,3.062 -23.98,15.09 l -74.97,104.921 z m -82.96,57.93 h 44.98 c 67.96,0 82.96,42.891 82.96,83.942 0,30.968 -14,59.968 -45.97,73.91 -16.99,7.019 -32.99,7.019 -54.98,7.019 h -26.99 v -164.871 0"
         style="fill:#ffffff;fill-opacity:1;fill-rule:nonzero;stroke:none"
         id="path18" />
      <path
         d="m 1298.58,533.609 h 15 V 413.66 h -15 l -9,35.961 c -3.01,13.051 -11,18.008 -22.97,18.008 h -86.98 V 335.711 c 0,-10 4.01,-14.91 15,-16.949 l 40.98,-8.981 v -13.062 h -160.88 v 13.062 l 36.97,8.981 c 11,2.949 15,6.949 15,16.949 v 281.828 c 0,10.02 -4,13.981 -15,16.961 l -36.97,9.012 v 13.027 h 271.82 v -90.027 h -15 l -16.97,54.039 c -4.01,13.949 -10,18.98 -22,18.98 H 1179.63 V 484.648 h 86.98 c 11.97,0 18.96,4.922 22.97,17.993 l 9,30.968 v 0"
         style="fill:#ffffff;fill-opacity:1;fill-rule:nonzero;stroke:none"
         id="path20" />
      <path
         d="M 2321.95,639.531 V 329.789 c 0,-13.059 2.99,-16.129 16,-16.129 h 43.96 c 41.98,0 72.95,6.121 94.95,22.051 36.97,26.961 53.96,75.93 53.96,137.918 0,60.961 -16.99,120.859 -66.95,149.871 -20.98,12.031 -47.97,16.031 -89.96,16.031 h -51.96 z M 2217.01,296.719 v 13.062 l 36.97,8.981 c 11.02,2.949 15,6.949 15,16.949 v 281.828 c 0,10.02 -3.98,13.981 -15,16.961 l -36.97,9.012 v 13.027 h 168.91 c 45.96,0 78.94,-6 105.94,-17.988 67.94,-31.012 98.94,-97.93 98.94,-163.891 0,-64.039 -24,-123.93 -84.96,-155.898 -27.97,-15.082 -66.95,-22.043 -117.91,-22.043 h -170.92 v 0"
         style="fill:#ffffff;fill-opacity:1;fill-rule:nonzero;stroke:none"
         id="path22" />
      <path
         d="M 761.938,309.781 V 296.719 H 635.023 v 13.062 l 31.934,7.949 c 12.051,3.071 20,6.969 27.988,15.95 L 804.906,471.602 694.945,617.539 c -6.972,10.02 -15.937,14.973 -26.972,17.992 l -30,7.981 v 13.027 h 157.91 v -13.027 l -33.945,-6.973 c -12.032,-2.039 -9.024,-7 -3.047,-15.019 l 80.957,-115.918 h 1.992 l 82.969,115.918 c 5.996,8.019 8.007,10.992 -2.989,14.011 l -31.992,7.981 v 13.027 h 126.932 v -13.027 l -31.99,-7.981 c -11.973,-3.019 -19.981,-6.972 -27.989,-15.972 l -103.926,-131 115.918,-152.848 c 7.032,-10 15.997,-14.91 26.993,-17.981 l 30.004,-7.949 V 296.719 H 867.855 v 13.062 l 33.965,6.949 c 12.012,2.032 10,5.93 4.004,14.079 l -87.949,123.902 h -1.992 L 726.957,331.648 c -6.016,-7.968 -8.008,-10.847 2.969,-13.918 l 32.012,-7.949 v 0"
         style="fill:#ffffff;fill-opacity:1;fill-rule:nonzero;stroke:none"
         id="path24" />
      <path
         d="m 383.375,825.859 c -9.937,-9.929 -24.852,-16.57 -45.645,-16.57 -18.14,0 -34.941,5.711 -46.316,17.09 -15.519,15.519 -14.812,35.32 -14.812,56.48 v 100.082 h 20.406 V 875.43 c 0,-13.602 -0.41,-26.852 10.094,-37.36 7.289,-7.281 18.488,-11.211 31.398,-11.211 12.617,0 22.734,4.34 29.055,10.661 11.699,11.691 10.957,24.429 10.957,55.23 v 90.191 h 20.097 v -84.89 c 0,-32.27 1.309,-55.653 -15.234,-72.192"
         style="fill:#ffffff;fill-opacity:1;fill-rule:nonzero;stroke:none"
         id="path26" />
      <path
         d="m 564.477,812.5 -82.11,139.719 0.508,-139.719 h -18.75 v 170.449 h 20.93 l 82.39,-140.5 -0.507,140.5 h 18.75 V 812.5 h -21.211"
         style="fill:#ffffff;fill-opacity:1;fill-rule:nonzero;stroke:none"
         id="path28" />
      <path
         d="m 656.758,812.512 v 170.429 h 20.508 V 812.512 h -20.508"
         style="fill:#ffffff;fill-opacity:1;fill-rule:nonzero;stroke:none"
         id="path30" />
      <path
         d="m 804.77,812.512 h -23.477 l -58.77,170.429 h 21.368 l 49.726,-150.461 51.196,150.461 h 19.839 L 804.77,812.512"
         style="fill:#ffffff;fill-opacity:1;fill-rule:nonzero;stroke:none"
         id="path32" />
      <path
         d="m 911.051,812.512 v 170.429 h 92.649 v -16.992 h -72.563 v -56.25 h 68.121 v -16.57 H 931.137 V 830.02 h 74.603 v -17.508 h -94.689"
         style="fill:#ffffff;fill-opacity:1;fill-rule:nonzero;stroke:none"
         id="path34" />
      <path
         d="m 1153.92,812.512 -19.58,44.179 c -12.13,27.168 -17.66,29.95 -42.37,29.95 h -11.89 v -74.129 h -20.09 v 170.429 h 36.76 c 22.75,0 39.9,0.161 53.31,-13.261 8.53,-8.532 13.29,-19.86 13.29,-34.078 0,-11.852 -3.44,-21.692 -10.58,-29.282 -6.14,-6.531 -16.29,-12.269 -27.34,-13.449 6.01,-0.351 10.96,-3.57 14.18,-6.801 4.64,-4.629 8.02,-11.66 13.01,-22.808 l 22.64,-50.75 z m -18.62,144.777 c -9.77,9.77 -22.45,9.32 -36.34,9.32 h -18.88 v -63.64 h 6.78 c 17.21,0 35.73,-0.899 47.42,10.793 5.66,5.66 8.81,13.578 8.81,22.218 0,9.59 -3.76,17.282 -7.79,21.309"
         style="fill:#ffffff;fill-opacity:1;fill-rule:nonzero;stroke:none"
         id="path36" />
      <path
         d="m 1374.35,812.512 v 170.429 h 20.5 V 812.512 h -20.5"
         style="fill:#ffffff;fill-opacity:1;fill-rule:nonzero;stroke:none"
         id="path38" />
      <path
         d="M 1511.88,965.949 V 812.512 h -20.49 v 153.437 h -50.67 v 16.992 h 121.66 v -16.992 h -50.5"
         style="fill:#ffffff;fill-opacity:1;fill-rule:nonzero;stroke:none"
         id="path40" />
      <path
         d="m 1660.48,879.871 v -67.359 h -20.25 v 67.359 l -54.1,103.07 h 23.44 l 42,-79.921 40.79,79.929 22.23,-0.008 -54.11,-103.07"
         style="fill:#ffffff;fill-opacity:1;fill-rule:nonzero;stroke:none"
         id="path42" />
      <path
         d="m 1905.83,809.289 c -44.1,0 -76.37,36.43 -76.37,87.66 0,52.641 31.92,89.211 77.94,89.211 44.62,0 76.11,-36.18 76.11,-87.629 0,-52.769 -31.56,-89.242 -77.68,-89.242 z m -0.07,159.461 c -33.4,0 -55.09,-28.199 -55.09,-70.699 0,-42.36 24.15,-71.192 56.19,-71.192 35.61,0 55.43,30.301 55.43,72.532 0,41.578 -23.4,69.359 -56.53,69.359"
         style="fill:#ffffff;fill-opacity:1;fill-rule:nonzero;stroke:none"
         id="path44" />
      <path
         d="m 2059.9,965.949 v -56.25 h 65.89 v -16.57 h -65.89 v -80.617 h -20.35 v 170.429 h 90.52 v -16.992 h -70.17"
         style="fill:#ffffff;fill-opacity:1;fill-rule:nonzero;stroke:none"
         id="path46" />
      <path
         d="m 1216.58,941.359 c 0,26.192 21.07,44.832 51.85,44.832 31.16,0 46.11,-16.089 47.64,-17.75 l -10,-12.113 c -3.82,2.953 -17.46,12.973 -36.29,12.973 -21.75,0 -33.79,-11.371 -33.79,-26.789 0,-7.473 3.06,-12.84 7.99,-17.25 5.84,-5.25 14.37,-9.121 23.55,-13.34 11.43,-5.262 27.09,-11.172 37.57,-22.063 7.27,-7.507 12.76,-17.308 12.76,-30.75 0,-28.347 -19.67,-49.929 -55.05,-49.929 -30.14,0 -49.17,16.601 -50.96,18.261 l 9.4,13.829 c 4.84,-3.59 23.76,-14.782 41.06,-14.782 25.64,0 35.24,14.032 35.24,30.961 0,7.879 -3.58,14.199 -8.88,19.301 -7.96,7.66 -19.99,12.781 -31.52,18.051 -11.46,5.23 -22.48,10.711 -30.29,18.918 -5.15,5.402 -10.28,14.242 -10.28,27.64"
         style="fill:#ffffff;fill-opacity:1;fill-rule:nonzero;stroke:none"
         id="path48" />
      <path
         d="m 1999.5,2135.99 c 0,21.41 -7.24,38.69 -22.93,47.9 -9.83,5.77 -23.13,7.65 -39.54,7.65 l -119.32,0.02 V 1950.6 h 129.87 c 29.94,0 47.55,-6.74 49.08,-33.6 h 2.86 l -0.02,218.99"
         style="fill:#ffffff;fill-opacity:1;fill-rule:nonzero;stroke:none"
         id="path50" />
      <path
         d="m 2016.18,2135.99 c 0,21.41 7.25,38.69 22.93,47.9 9.83,5.77 23.14,7.65 39.53,7.65 l 120.17,0.02 V 1950.6 H 2068.1 c -29.94,0 -47.54,-6.74 -49.08,-33.6 h -2.86 l 0.02,218.99"
         style="fill:#ffffff;fill-opacity:1;fill-rule:nonzero;stroke:none"
         id="path52" />
      <path
         d="m 2223.75,2173.74 c 0,0 0,-239.1 0,-254.72 -15.18,0 -184.5,0 -184.5,0 l -2.11,-5.21 c -3.21,-7.95 -8.97,-15.3 -29.11,-15.3 -20.13,0 -25.88,7.35 -29.1,15.3 l -2.1,5.21 c 0,0 -169.03,0 -184.21,0 0,15.62 0,254.72 0,254.72 h -16.66 v -7.76 l -15.99,4.91 c -1.84,6.29 -7.6,10.91 -14.48,10.91 -8.37,0 -15.18,-6.79 -15.18,-15.17 0,-8.39 6.81,-15.18 15.18,-15.18 3.66,0 6.97,1.35 9.59,3.51 l 20.88,-6.41 v -20.48 l -15.7,2.82 c -2.31,5.41 -7.68,9.21 -13.94,9.21 -8.37,0 -15.18,-6.79 -15.18,-15.18 0,-8.38 6.81,-15.17 15.18,-15.17 4.32,0 8.21,1.84 10.97,4.74 l 18.67,-3.34 v -20.88 l -16.4,0.72 c -2.65,4.42 -7.44,7.41 -12.97,7.41 -8.36,0 -15.17,-6.8 -15.17,-15.17 0,-8.39 6.81,-15.18 15.17,-15.18 5.06,0 9.5,2.5 12.27,6.3 l 17.1,-0.76 v -22.68 l -16.76,-0.6 c -2.75,3.85 -7.24,6.39 -12.32,6.39 -8.37,0 -15.18,-6.8 -15.18,-15.18 0,-8.38 6.81,-15.17 15.18,-15.17 5.47,0 10.24,2.94 12.91,7.3 l 16.17,0.58 v -20.9 l -18.33,-3.15 c -2.77,2.95 -6.67,4.82 -11.04,4.82 -8.36,0 -15.17,-6.8 -15.17,-15.18 0,-8.38 6.81,-15.17 15.17,-15.17 6.22,0 11.56,3.76 13.91,9.12 l 15.46,2.65 v -20.52 l -20.04,-6.12 c -2.62,2.17 -5.94,3.52 -9.6,3.52 -8.37,0 -15.18,-6.8 -15.18,-15.18 0,-8.38 6.81,-15.17 15.18,-15.17 6.88,0 12.64,4.62 14.49,10.91 l 15.15,4.62 v -19.85 l -22.14,-9.55 c -2.39,1.58 -5.26,2.51 -8.33,2.51 -8.37,0 -15.18,-6.79 -15.18,-15.17 0,-8.38 6.81,-15.18 15.18,-15.18 7.46,0 13.64,5.42 14.9,12.53 l 15.57,6.72 v -18.13 c 0,0 181.76,0 190.6,0 7.75,-13.52 21.14,-20.51 41.47,-20.51 20.33,0 33.73,6.99 41.48,20.51 8.83,0 190.9,0 190.9,0 v 271.38 h -16.66"
         style="fill:#ffffff;fill-opacity:1;fill-rule:nonzero;stroke:none"
         id="path54" />
      <path
         d="m 1882.64,2258.69 c -38.54,0 -69.76,-5.99 -69.76,-13.38 0,-7.4 31.22,-13.38 69.76,-13.38 38.5,0 69.73,5.98 69.73,13.38 0,7.39 -31.23,13.38 -69.73,13.38"
         style="fill:#ffffff;fill-opacity:1;fill-rule:nonzero;stroke:none"
         id="path56" />
      <path
         d="m 1978.67,2342.26 -40.27,-28.3 -0.34,-2.87 9.57,-4.3 c 1.89,-0.95 1.91,-2.47 0.94,-3.39 l -25.29,-21.35 -2.4,0.21 -17.92,26.41 c -1.23,1.72 -0.79,3.42 1.38,3.78 l 12.02,1.96 v 3.04 l -31.17,44.05 h -5.14 l -31.17,-44.05 v -3.04 l 12.03,-1.96 c 2.16,-0.36 2.61,-2.06 1.37,-3.78 l -17.92,-26.41 -2.41,-0.21 -23.62,21.35 c -0.97,0.92 -0.95,2.44 0.94,3.39 l 9.58,4.3 -0.35,2.87 -41.94,28.3 -3.4,-1.33 24.62,-75.25 c 12.5,5.62 41.21,9.57 74.84,9.73 33.62,-0.16 62.33,-4.11 74.83,-9.73 l 24.62,75.25 -3.4,1.33"
         style="fill:#ffffff;fill-opacity:1;fill-rule:nonzero;stroke:none"
         id="path58" />
      <path
         d="m 2007.73,1754.12 c -38.52,0 -69.75,-5.99 -69.75,-13.38 0,-7.39 31.23,-13.38 69.75,-13.38 38.52,0 69.75,5.99 69.75,13.38 0,7.39 -31.23,13.38 -69.75,13.38"
         style="fill:#ffffff;fill-opacity:1;fill-rule:nonzero;stroke:none"
         id="path60" />
      <path
         d="m 2103.78,1837.69 -40.27,-28.3 -0.35,-2.87 9.57,-4.3 c 1.9,-0.94 1.92,-2.47 0.95,-3.39 l -25.3,-21.35 -2.39,0.22 -17.92,26.41 c -1.23,1.71 -0.79,3.42 1.36,3.78 l 12.03,1.96 v 3.03 l -31.18,44.06 h -5.12 l -31.18,-44.06 v -3.03 l 12.04,-1.96 c 2.14,-0.36 2.59,-2.07 1.36,-3.78 l -17.93,-26.41 -2.4,-0.22 -23.61,21.35 c -0.97,0.92 -0.95,2.45 0.94,3.39 l 9.58,4.3 -0.36,2.87 -41.94,28.3 -3.4,-1.33 24.63,-75.25 c 12.5,5.62 41.21,9.57 74.82,9.73 33.63,-0.16 62.34,-4.11 74.84,-9.73 l 24.63,75.25 -3.4,1.33"
         style="fill:#ffffff;fill-opacity:1;fill-rule:nonzero;stroke:none"
         id="path62" />
      <path
         d="m 2132.54,2258.69 c -38.54,0 -69.77,-5.99 -69.77,-13.38 0,-7.4 31.23,-13.38 69.77,-13.38 38.5,0 69.74,5.98 69.74,13.38 0,7.39 -31.24,13.38 -69.74,13.38"
         style="fill:#ffffff;fill-opacity:1;fill-rule:nonzero;stroke:none"
         id="path64" />
      <path
         d="m 2228.57,2342.26 -40.27,-28.3 -0.34,-2.87 9.57,-4.3 c 1.89,-0.95 1.91,-2.47 0.95,-3.39 l -25.3,-21.35 -2.4,0.21 -17.92,26.41 c -1.23,1.72 -0.79,3.42 1.37,3.78 l 12.03,1.96 v 3.04 l -31.18,44.05 h -5.13 l -31.17,-44.05 v -3.04 l 12.03,-1.96 c 2.16,-0.36 2.61,-2.06 1.37,-3.78 l -17.92,-26.41 -2.4,-0.21 -23.63,21.63 c -0.96,0.92 -0.94,2.44 0.94,3.39 l 9.58,4.02 -0.35,2.87 -41.94,28.3 -3.39,-1.33 24.62,-75.25 c 12.5,5.62 41.21,9.57 74.83,9.73 33.61,-0.16 62.32,-4.11 74.82,-9.73 l 24.63,75.25 -3.4,1.33"
         style="fill:#ffffff;fill-opacity:1;fill-rule:nonzero;stroke:none"
         id="path66" />
      <path
         d="m 1845.92,2127.24 c 0,-4.72 1.16,-5.63 3.71,-5.63 4.57,0 9.2,5.05 9.2,14.46 0,11.41 -5.79,14.6 -10.31,14.6 -1.23,0 -1.92,-0.17 -2.29,-0.38 -0.26,-0.1 -0.31,-1.33 -0.31,-2.65 z m 2.6,26.09 c 6.54,0 11.95,-1.28 15.5,-4.73 2.5,-2.39 4.57,-6.32 4.57,-10.89 0,-13.23 -10.04,-18.91 -22.3,-18.91 h -13.71 v 2.07 c 3.88,0.32 4.3,0.69 4.3,6.43 v 17.53 c 0,5.73 -0.42,6.11 -3.87,6.42 v 2.08 h 15.51"
         style="fill:#231f20;fill-opacity:1;fill-rule:nonzero;stroke:none"
         id="path68" />
      <path
         d="m 1883.1,2137.39 c 0,-9.62 3.6,-16.63 8.8,-16.63 4.58,0 7.07,4.41 7.07,14.03 0,10.67 -3.81,16.57 -8.39,16.57 -4.09,0 -7.48,-4.67 -7.48,-13.97 z m 25.76,-0.91 c 0,-11.37 -7.77,-18.48 -17.95,-18.48 -10.73,0 -17.69,7.82 -17.69,17.59 0,8.6 5.74,18.53 18.42,18.53 9.73,0 17.22,-7.12 17.22,-17.64"
         style="fill:#231f20;fill-opacity:1;fill-rule:nonzero;stroke:none"
         id="path70" />
      <path
         d="m 1955.76,2153.33 v -2.08 c -4.04,-0.37 -4.25,-0.58 -4.09,-6.16 l 0.53,-17.79 c 0.15,-5.9 0.26,-6.06 4.09,-6.43 v -2.07 h -16.62 v 2.07 c 3.97,0.37 4.14,0.53 4.08,6.43 l -0.16,18.7 h -0.21 l -10.25,-26.62 h -2.87 l -9.71,24.75 h -0.11 l -0.37,-11.79 c -0.17,-4.57 -0.11,-7.11 0.1,-8.75 0.21,-1.98 1.38,-2.46 4.83,-2.72 v -2.07 h -13.12 v 2.07 c 2.55,0.22 3.56,0.74 3.88,2.72 0.27,1.64 0.58,4.45 0.85,9.29 l 0.59,10.73 c 0.37,6.68 -0.05,7.27 -4.25,7.64 v 2.08 h 12.48 l 9.3,-21.04 8.12,21.04 h 12.91"
         style="fill:#231f20;fill-opacity:1;fill-rule:nonzero;stroke:none"
         id="path72" />
      <path
         d="m 1973.02,2127.3 c 0,-5.74 0.42,-6.11 4.08,-6.43 v -2.07 h -17.21 v 2.07 c 3.67,0.32 4.09,0.69 4.09,6.43 v 17.53 c 0,5.73 -0.42,6.11 -4.09,6.42 v 2.08 h 17.21 v -2.08 c -3.66,-0.31 -4.08,-0.69 -4.08,-6.42 v -17.53"
         style="fill:#231f20;fill-opacity:1;fill-rule:nonzero;stroke:none"
         id="path74" />
      <path
         d="m 1887.47,2054.69 h -4.57 l -19.65,25.07 h -0.11 v -9.77 c 0,-5.58 0.22,-8.5 0.43,-10.15 0.27,-1.86 1.69,-2.55 5.21,-2.71 v -2.07 h -13.23 v 2.07 c 2.34,0.11 3.72,0.85 3.98,2.71 0.22,1.65 0.42,4.57 0.42,10.15 v 9.77 c 0,3.93 -0.11,4.63 -1.16,6.11 -0.8,1.12 -2.13,1.48 -4.03,1.65 v 2.07 h 11.73 l 17.69,-22.05 h 0.1 v 7.12 c 0,5.58 -0.21,8.5 -0.42,10.14 -0.27,1.86 -1.7,2.55 -5.21,2.72 v 2.07 h 13.55 v -2.07 c -2.66,-0.11 -4.05,-0.86 -4.3,-2.72 -0.21,-1.64 -0.43,-4.56 -0.43,-10.14 v -19.97"
         style="fill:#231f20;fill-opacity:1;fill-rule:nonzero;stroke:none"
         id="path76" />
      <path
         d="m 1908.98,2054.69 c -3.67,9.56 -8.65,22.68 -10.56,27.67 -1.75,4.57 -2.81,4.84 -5.37,5.16 v 2.07 h 17.16 v -2.07 l -1.81,-0.22 c -1.96,-0.21 -1.96,-0.69 -1.38,-2.55 0.96,-2.96 5.15,-13.44 7.12,-18.64 1.65,4.51 5.04,14.66 5.9,17.15 1.1,3.25 0.79,3.83 -1.6,4.09 l -1.59,0.17 v 2.07 h 12.86 v -2.07 c -3.04,-0.38 -3.78,-0.65 -5.85,-5.48 -0.32,-0.74 -6.8,-16.52 -10.78,-27.35 h -4.1"
         style="fill:#231f20;fill-opacity:1;fill-rule:nonzero;stroke:none"
         id="path78" />
      <path
         d="m 1932.95,2066 c 1.1,-3.08 4.25,-8.98 9.45,-8.98 2.76,0 4.89,1.82 4.89,5.27 0,3.13 -2.08,4.88 -5.32,6.37 l -0.79,0.38 c -4.35,2.01 -9.3,4.77 -9.3,10.45 0,6 4.36,10.9 12.69,10.9 1.65,0 3.35,-0.21 4.89,-0.65 1.22,-0.31 2.07,-0.52 2.76,-0.74 0.21,-2.07 0.58,-4.67 1.17,-8.28 l -2.34,-0.37 c -1.17,3.5 -3.02,7.27 -7.22,7.27 -2.71,0 -4.62,-2.07 -4.62,-4.62 0,-2.65 2.07,-4.2 5.47,-5.74 l 1.17,-0.53 c 4.89,-2.23 9.08,-4.94 9.08,-11.15 0,-6.54 -5.25,-11.31 -13.48,-11.31 -2.13,0 -4.31,0.42 -5.75,0.9 -1.59,0.53 -2.7,0.96 -3.34,1.27 -0.43,2.45 -1.12,5.31 -1.75,8.87 l 2.34,0.69"
         style="fill:#231f20;fill-opacity:1;fill-rule:nonzero;stroke:none"
         id="path80" />
      <path
         d="m 1863.85,1999.82 c 0,-5.73 0.42,-6.1 4.09,-6.43 v -2.07 h -17.21 v 2.07 c 3.66,0.33 4.08,0.7 4.08,6.43 v 17.54 c 0,5.73 -0.42,6.1 -4.08,6.42 v 2.07 h 17.21 v -2.07 c -3.67,-0.32 -4.09,-0.69 -4.09,-6.42 v -17.54"
         style="fill:#231f20;fill-opacity:1;fill-rule:nonzero;stroke:none"
         id="path82" />
      <path
         d="m 1884.88,1999.13 c 0,-2.76 0.11,-4.08 1.07,-4.56 0.85,-0.43 2.07,-0.48 3.71,-0.48 1.71,0 3.99,0.15 5.11,1.54 0.85,1 1.74,2.44 2.59,5.26 l 2.29,-0.38 c -0.31,-2.02 -1.44,-7.54 -1.92,-9.19 h -26.34 v 2.07 c 4.04,0.33 4.46,0.7 4.46,6.43 v 17.54 c 0,5.73 -0.42,6.1 -3.98,6.42 v 2.07 h 17.26 v -2.07 c -3.83,-0.32 -4.25,-0.69 -4.25,-6.42 v -18.23"
         style="fill:#231f20;fill-opacity:1;fill-rule:nonzero;stroke:none"
         id="path84" />
      <path
         d="m 1914.52,1999.13 c 0,-2.76 0.11,-4.08 1.07,-4.56 0.85,-0.43 2.07,-0.48 3.71,-0.48 1.71,0 3.99,0.15 5.1,1.54 0.85,1 1.75,2.44 2.6,5.26 l 2.29,-0.38 c -0.32,-2.02 -1.44,-7.54 -1.92,-9.19 h -26.34 v 2.07 c 4.04,0.33 4.46,0.7 4.46,6.43 v 17.54 c 0,5.73 -0.42,6.1 -3.99,6.42 v 2.07 h 17.27 v -2.07 c -3.83,-0.32 -4.25,-0.69 -4.25,-6.42 v -18.23"
         style="fill:#231f20;fill-opacity:1;fill-rule:nonzero;stroke:none"
         id="path86" />
      <path
         d="m 1939.9,1990.95 c -3.66,9.56 -8.65,22.68 -10.56,27.68 -1.75,4.56 -2.82,4.83 -5.38,5.15 v 2.07 h 17.17 v -2.07 l -1.81,-0.21 c -1.96,-0.21 -1.96,-0.69 -1.38,-2.56 0.96,-2.97 5.16,-13.44 7.12,-18.64 1.65,4.52 5.05,14.66 5.9,17.16 1.11,3.24 0.79,3.83 -1.6,4.08 l -1.59,0.17 v 2.07 h 12.86 v -2.07 c -3.04,-0.37 -3.77,-0.64 -5.85,-5.48 -0.32,-0.73 -6.8,-16.51 -10.78,-27.35 h -4.1"
         style="fill:#231f20;fill-opacity:1;fill-rule:nonzero;stroke:none"
         id="path88" />
      <path
         d="m 2082.58,2153.33 v -2.08 c -4.04,-0.37 -4.25,-0.58 -4.09,-6.16 l 0.52,-17.79 c 0.16,-5.9 0.27,-6.06 4.1,-6.43 v -2.07 h -16.63 v 2.07 c 3.98,0.37 4.15,0.53 4.09,6.43 l -0.16,18.7 h -0.21 l -10.26,-26.62 h -2.86 l -9.72,24.75 h -0.1 l -0.38,-11.79 c -0.16,-4.57 -0.1,-7.11 0.1,-8.75 0.22,-1.98 1.39,-2.46 4.84,-2.72 v -2.07 h -13.12 v 2.07 c 2.55,0.22 3.56,0.74 3.88,2.72 0.26,1.64 0.57,4.45 0.85,9.29 l 0.58,10.73 c 0.37,6.68 -0.05,7.27 -4.24,7.64 v 2.08 h 12.47 l 9.3,-21.04 8.13,21.04 h 12.91"
         style="fill:#231f20;fill-opacity:1;fill-rule:nonzero;stroke:none"
         id="path90" />
      <path
         d="m 2099.83,2127.3 c 0,-5.74 0.42,-6.11 4.09,-6.43 v -2.07 h -17.21 v 2.07 c 3.67,0.32 4.09,0.69 4.09,6.43 v 17.53 c 0,5.73 -0.42,6.11 -4.09,6.42 v 2.08 h 17.21 v -2.08 c -3.67,-0.31 -4.09,-0.69 -4.09,-6.42 v -17.53"
         style="fill:#231f20;fill-opacity:1;fill-rule:nonzero;stroke:none"
         id="path92" />
      <path
         d="m 2139.35,2118.43 h -4.56 l -19.65,25.07 h -0.12 v -9.77 c 0,-5.58 0.22,-8.5 0.43,-10.14 0.27,-1.87 1.7,-2.56 5.2,-2.72 v -2.07 h -13.22 v 2.07 c 2.34,0.11 3.71,0.85 3.99,2.72 0.2,1.64 0.42,4.56 0.42,10.14 v 9.77 c 0,3.92 -0.11,4.62 -1.18,6.11 -0.79,1.11 -2.12,1.48 -4.02,1.64 v 2.08 h 11.73 l 17.68,-22.05 h 0.11 v 7.12 c 0,5.58 -0.21,8.49 -0.42,10.15 -0.27,1.85 -1.71,2.54 -5.2,2.7 v 2.08 h 13.54 v -2.08 c -2.65,-0.1 -4.04,-0.85 -4.3,-2.7 -0.21,-1.66 -0.43,-4.57 -0.43,-10.15 v -19.97"
         style="fill:#231f20;fill-opacity:1;fill-rule:nonzero;stroke:none"
         id="path94" />
      <path
         d="m 2154.8,2132.4 h 6.81 l -3.35,10.15 h -0.16 z m 6.75,-11.53 1.6,0.22 c 1.97,0.25 2.06,0.79 1.38,2.71 l -1.91,5.41 h -8.71 l -1.61,-5.1 c -0.68,-2.29 -0.68,-2.81 1.76,-3.08 l 1.54,-0.16 v -2.07 h -12.38 v 2.07 c 2.72,0.37 3.52,0.59 5.27,5.05 l 10.62,27.46 3.66,0.74 3.62,-10.04 c 2.28,-6.32 4.56,-12.59 6.58,-18.01 1.71,-4.61 2.66,-4.88 5.26,-5.2 v -2.07 h -16.68 v 2.07"
         style="fill:#231f20;fill-opacity:1;fill-rule:nonzero;stroke:none"
         id="path96" />
      <path
         d="m 2082.16,2063.56 c 0,-5.73 0.42,-6.11 4.88,-6.43 v -2.07 h -18.58 v 2.07 c 4.25,0.32 4.67,0.7 4.67,6.43 v 23.27 h -0.9 c -3.57,0 -5,-0.65 -5.85,-1.6 -0.64,-0.8 -1.27,-2.18 -1.97,-5.15 h -2.22 c 0.2,4.46 0.52,8.12 0.62,10.83 h 1.65 c 0.8,-1.21 1.33,-1.32 2.77,-1.32 h 21.19 c 1.38,0 1.64,0.32 2.5,1.32 h 1.64 c 0.06,-2.23 0.32,-6.74 0.58,-10.67 l -2.33,-0.16 c -0.8,3.18 -1.38,4.56 -2.18,5.47 -0.91,0.96 -2.65,1.28 -5.2,1.28 h -1.27 v -23.27"
         style="fill:#231f20;fill-opacity:1;fill-rule:nonzero;stroke:none"
         id="path98" />
      <path
         d="m 2109.97,2063.56 c 0,-5.73 0.42,-6.11 4.08,-6.43 v -2.07 h -17.2 v 2.07 c 3.67,0.32 4.09,0.7 4.09,6.43 v 17.53 c 0,5.74 -0.42,6.11 -4.09,6.43 v 2.07 h 17.2 v -2.07 c -3.66,-0.32 -4.08,-0.69 -4.08,-6.43 v -17.53"
         style="fill:#231f20;fill-opacity:1;fill-rule:nonzero;stroke:none"
         id="path100" />
      <path
         d="m 2128.37,2073.66 c 0,-9.62 3.61,-16.64 8.82,-16.64 4.57,0 7.06,4.42 7.06,14.03 0,10.68 -3.82,16.57 -8.39,16.57 -4.09,0 -7.49,-4.67 -7.49,-13.96 z m 25.76,-0.91 c 0,-11.37 -7.75,-18.48 -17.95,-18.48 -10.73,0 -17.68,7.81 -17.68,17.58 0,8.6 5.73,18.54 18.41,18.54 9.73,0 17.22,-7.13 17.22,-17.64"
         style="fill:#231f20;fill-opacity:1;fill-rule:nonzero;stroke:none"
         id="path102" />
      <path
         d="m 2097.83,2025.85 v -2.07 c -4.03,-0.37 -4.25,-0.59 -4.09,-6.17 l 0.54,-17.79 c 0.14,-5.89 0.25,-6.06 4.08,-6.43 v -2.07 h -16.62 v 2.07 c 3.97,0.37 4.14,0.54 4.08,6.43 l -0.15,18.7 h -0.22 l -10.25,-26.61 h -2.87 l -9.71,24.75 h -0.11 l -0.37,-11.8 c -0.17,-4.56 -0.11,-7.11 0.11,-8.75 0.2,-1.97 1.37,-2.45 4.82,-2.72 v -2.07 h -13.11 v 2.07 c 2.55,0.22 3.55,0.75 3.87,2.72 0.27,1.64 0.59,4.46 0.85,9.29 l 0.59,10.73 c 0.37,6.69 -0.05,7.28 -4.25,7.65 v 2.07 h 12.49 l 9.29,-21.03 8.12,21.03 h 12.91"
         style="fill:#231f20;fill-opacity:1;fill-rule:nonzero;stroke:none"
         id="path104" />
      <path
         d="m 2106.05,2017.36 c 0,5.73 -0.42,6.1 -3.98,6.42 v 2.07 h 25.19 c 0.04,-0.91 0.31,-4.78 0.57,-8.76 l -2.33,-0.16 c -0.54,2.6 -1.12,4.08 -1.97,4.93 -0.84,0.91 -2.6,1.23 -5.41,1.23 h -0.9 c -2.02,0 -2.13,0 -2.13,-1.86 v -10.25 h 2.65 c 4.57,0 4.73,0.32 5.27,4.35 h 2.33 v -12.53 h -2.33 c -0.54,4.67 -0.7,4.99 -5.27,4.99 h -2.65 v -8.66 c 0,-2.76 0.11,-4.08 1.06,-4.56 0.85,-0.43 2.07,-0.48 3.71,-0.48 2.13,0 4.48,0.32 5.64,1.59 0.9,0.95 1.8,2.91 2.61,5.47 l 2.33,-0.37 c -0.26,-2.6 -1.38,-8.02 -1.86,-9.46 h -27.04 v 2.07 c 4.09,0.33 4.51,0.7 4.51,6.43 v 17.54"
         style="fill:#231f20;fill-opacity:1;fill-rule:nonzero;stroke:none"
         id="path106" />
      <path
         d="m 2142.33,2004.92 h 6.81 l -3.35,10.15 h -0.16 z m 6.75,-11.53 1.6,0.22 c 1.97,0.26 2.06,0.8 1.38,2.71 l -1.91,5.41 h -8.71 l -1.61,-5.1 c -0.68,-2.28 -0.68,-2.81 1.76,-3.08 l 1.54,-0.16 v -2.07 h -12.38 v 2.07 c 2.72,0.37 3.52,0.59 5.27,5.06 l 10.62,27.45 3.66,0.75 3.62,-10.04 c 2.28,-6.33 4.56,-12.59 6.58,-18.02 1.71,-4.61 2.66,-4.87 5.26,-5.2 v -2.07 h -16.68 v 2.07"
         style="fill:#231f20;fill-opacity:1;fill-rule:nonzero;stroke:none"
         id="path108" />
      <path
         d="m 1959.82,1563.99 c 0,-7.68 -6.22,-13.9 -13.88,-13.9 -7.67,0 -13.89,6.22 -13.89,13.9 0,7.67 6.22,13.89 13.89,13.89 7.66,0 13.88,-6.22 13.88,-13.89"
         style="fill:#ffffff;fill-opacity:1;fill-rule:nonzero;stroke:none"
         id="path110" />
      <path
         d="m 2100.7,1540.88 c 0,-7.68 -6.22,-13.89 -13.89,-13.89 -7.67,0 -13.89,6.21 -13.89,13.89 0,7.67 6.22,13.88 13.89,13.88 7.67,0 13.89,-6.21 13.89,-13.88"
         style="fill:#ffffff;fill-opacity:1;fill-rule:nonzero;stroke:none"
         id="path112" />
      <path
         d="m 1560.89,2321.52 v 0 0"
         style="fill:#ffffff;fill-opacity:1;fill-rule:nonzero;stroke:none"
         id="path114" />
      <path
         d="m 2144.59,2572.57 v 0 0"
         style="fill:#ffffff;fill-opacity:1;fill-rule:nonzero;stroke:none"
         id="path116" />
      <path
         d="m 2368.76,2296.54 v 0 0"
         style="fill:#ffffff;fill-opacity:1;fill-rule:nonzero;stroke:none"
         id="path118" />
      <path
         d="m 2476.77,1844.78 v 0 0"
         style="fill:#ffffff;fill-opacity:1;fill-rule:nonzero;stroke:none"
         id="path120" />
      <path
         d="m 2021.07,2544.79 c 0,-7.67 -6.21,-13.88 -13.88,-13.88 -7.68,0 -13.89,6.21 -13.89,13.88 0,7.68 6.21,13.89 13.89,13.89 7.67,0 13.88,-6.21 13.88,-13.89"
         style="fill:#ffffff;fill-opacity:1;fill-rule:nonzero;stroke:none"
         id="path122" />
      <path
         d="m 2351.66,2414.76 c -0.33,-7.66 -6.81,-13.61 -14.47,-13.28 -7.66,0.31 -13.62,6.8 -13.29,14.46 0.32,7.65 6.8,13.6 14.45,13.27 7.67,-0.32 13.62,-6.79 13.31,-14.45"
         style="fill:#ffffff;fill-opacity:1;fill-rule:nonzero;stroke:none"
         id="path124" />
      <path
         d="m 1654.97,1818.47 c 5.34,-7.68 8.04,-15.9 8.02,-24.41 -0.02,-9.71 -3.26,-17.58 -20.64,-29.61 l -50.14,-35.75 -9.24,13.29 c 0,0 51.39,36.59 52.23,37.17 8.85,6.12 12.63,10.6 12.64,17.62 0.01,4.45 -1.62,9.3 -4.83,13.92 -5.03,7.24 -11.48,9.55 -17.16,9.56 -5.16,0 -10.71,-3.61 -20.59,-10.5 l -47.16,-32 -9.07,13.04 44.89,30.41 c 12.49,8.77 22.44,14.79 31.68,14.77 13.49,-0.02 23.34,-8.8 29.37,-17.51"
         style="fill:#ffffff;fill-opacity:1;fill-rule:nonzero;stroke:none"
         id="path126" />
      <path
         d="m 1494.68,1916.41 95.44,33.46 5.27,-14.46 -54.6,-66.7 69,27.29 5.14,-14.08 -94.33,-36.23 -5.28,14.46 54.88,66.78 -70.39,-24.62 -5.13,14.1"
         style="fill:#ffffff;fill-opacity:1;fill-rule:nonzero;stroke:none"
         id="path128" />
      <path
         d="m 1480.4,1992.39 99.89,14.82 2.37,-16 -99.89,-14.81 -2.37,15.99"
         style="fill:#ffffff;fill-opacity:1;fill-rule:nonzero;stroke:none"
         id="path130" />
      <path
         d="m 1477.44,2112.82 0.39,16.76 99.69,-40.51 -0.7,-16.63 -102.37,-30.53 0.11,16.79 83,23.26 -80.12,30.86"
         style="fill:#ffffff;fill-opacity:1;fill-rule:nonzero;stroke:none"
         id="path132" />
      <path
         d="m 1550.63,2308.15 c 5.93,10.77 10.15,14.85 16.41,14.82 2.33,0 5.25,-0.58 8.18,-2.2 3.78,-2.1 6.68,-5.59 7.77,-9.34 0.42,-1.46 0.59,-2.91 0.57,-4.36 -0.04,-6 -3.38,-12.03 -6.88,-18.34 l -2.07,-3.74 -28.46,15.28 z m 17.96,30.6 c -14.26,-0.02 -20.87,-8.19 -29.97,-24.65 l -11.85,-21.25 88.95,-48.27 7.68,13.89 -36.96,20.17 2.15,4 c 6.22,11.25 8.37,12.96 24.23,11.62 l 28.82,-2.56 8.23,14.93 -33.2,2.83 c -6.67,0.62 -11.93,1.11 -16.2,-0.13 -1.43,-0.41 -3.13,-1.28 -4.78,-2.44 0.38,1.81 1.08,3.56 1.09,5.39 0.03,2.85 -0.38,5.66 -1.23,8.23 -1.95,5.93 -6.17,10.73 -12.57,14.28 -4.78,2.63 -9.54,3.97 -14.39,3.96"
         style="fill:#ffffff;fill-opacity:1;fill-rule:nonzero;stroke:none"
         id="path134" />
      <path
         d="m 1679.12,2481.46 12.85,9.81 61.28,-80.26 -12.85,-9.81 -61.28,80.26"
         style="fill:#ffffff;fill-opacity:1;fill-rule:nonzero;stroke:none"
         id="path136" />
      <path
         d="m 1734.57,2520.84 65.33,34 6.38,-12.25 -25.42,-13.24 40.25,-77.33 -14.34,-7.46 -40.26,77.32 -25.56,-13.31 -6.38,12.27"
         style="fill:#ffffff;fill-opacity:1;fill-rule:nonzero;stroke:none"
         id="path138" />
      <path
         d="m 1897.53,2585.56 17.03,4.75 -13.71,-67.56 11.1,-38.36 -15.4,-4.44 -10.86,38.07 -47.94,50.03 16.61,4.81 34.5,-35.95 8.67,48.65"
         style="fill:#ffffff;fill-opacity:1;fill-rule:nonzero;stroke:none"
         id="path140" />
      <path
         d="m 2205.66,2447.51 51.27,86.99 48.25,-28.41 -7.02,-11.91 -34.44,20.3 -14.18,-24.07 32.42,-19.1 -6.85,-11.65 -32.43,19.11 -23.21,-39.4 -13.81,8.14"
         style="fill:#ffffff;fill-opacity:1;fill-rule:nonzero;stroke:none"
         id="path142" />
      <path
         d="m 2465.15,2222.55 36.75,44 5.73,-17.42 -27.39,-31.33 40.68,-9.13 5.39,-16.41 -55.64,13.46 -39.52,-47.36 -5.62,17.12 29.83,34.77 -44.6,10.17 -5.44,16.57 59.83,-14.44"
         style="fill:#ffffff;fill-opacity:1;fill-rule:nonzero;stroke:none"
         id="path144" />
      <path
         d="m 2436.27,2123.33 100.65,8.21 4.56,-55.83 -13.78,-1.12 -3.24,39.85 -27.84,-2.27 3.06,-37.51 -13.47,-1.1 -3.08,37.51 -45.55,-3.71 -1.31,15.97"
         style="fill:#ffffff;fill-opacity:1;fill-rule:nonzero;stroke:none"
         id="path146" />
      <path
         d="m 2488.73,1956.34 c -19.66,0 -42.65,10.72 -42.65,30.55 0,7.18 2.5,16.83 11.38,23.28 6.01,4.36 13.8,6.68 22.52,6.68 10.01,0 28.08,-2.83 37.56,-15.9 3.26,-4.5 4.92,-9.72 4.91,-15.31 0,-7.73 -3.15,-16.92 -11.44,-22.93 -5.87,-4.25 -13.6,-6.37 -22.28,-6.37 z m -7.95,76.95 c -11.68,0 -22.39,-3.15 -30.88,-9.31 -15.24,-11.04 -18.02,-26.91 -18.02,-36.19 0,-34.14 32.08,-47.79 56.19,-47.79 11.57,-0.02 22.15,3.13 30.49,9.18 17.02,12.32 17.94,30.83 17.94,36.79 0,29.79 -27.38,47.32 -55.72,47.32"
         style="fill:#ffffff;fill-opacity:1;fill-rule:nonzero;stroke:none"
         id="path148" />
      <path
         d="m 2406.45,2287.18 c -9.07,0 -17.25,3.8 -22.9,12.71 -2.88,4.53 -4.27,9.42 -4.3,14.38 -0.05,11.41 7.19,23.13 20.43,31.55 8.76,5.56 17.37,8.29 25.07,8.26 9.73,0 17.66,-4.29 22.95,-12.63 3.12,-4.91 4.55,-10.15 4.55,-15.38 0,-11.15 -7.06,-22.08 -19.87,-30.19 -8.96,-5.69 -18,-8.7 -25.93,-8.7 z m 15.72,82.27 c -10.22,0 -21.08,-3.24 -31.55,-9.88 -19.41,-12.32 -26.48,-29.94 -26.48,-42.81 0,-8.33 2.29,-16.51 7.05,-24.01 10.77,-17 26.94,-21.15 37.84,-21.1 10.43,0.05 21.43,3.5 31.8,10.09 12.49,7.92 26.4,22.64 26.4,42.57 0,8.28 -2.37,16.42 -7.14,23.96 -8.84,13.93 -22.7,21.18 -37.92,21.18"
         style="fill:#ffffff;fill-opacity:1;fill-rule:nonzero;stroke:none"
         id="path150" />
      <path
         d="m 2141.46,2487.38 c -7.31,0 -17.87,3.57 -23.77,14.35 -2.86,5.22 -4.13,11.56 -4.13,18.11 0,18.09 12.06,43.46 34.06,43.46 12.35,0 27.87,-9.2 27.87,-32.03 0,-14.56 -10.25,-43.89 -34.03,-43.89 z m 5.2,90.06 c -21.04,0 -39.37,-14.17 -46.77,-39.35 -1.64,-5.58 -2.67,-11.13 -2.67,-16.49 0,-10.09 1.7,-18.07 5.82,-25.62 9.34,-17.09 26.44,-22.91 39.44,-22.91 7.34,0 14.41,1.68 20.9,5.22 17.04,9.32 28.29,30.94 28.29,51.64 0,8.98 -1.74,17.45 -5.73,24.69 -8.2,14.9 -23.38,22.82 -39.28,22.82"
         style="fill:#ffffff;fill-opacity:1;fill-rule:nonzero;stroke:none"
         id="path152" />
      <path
         d="m 1587.31,2211.21 13.58,-3.83 -15.32,-55.47 -97.73,26.79 16.69,56.12 13.29,-3.76 -12.26,-40.43 26.95,-7.4 10.39,36.73 13,-3.69 -10.36,-36.61 30.48,-8.37 11.29,39.92"
         style="fill:#ffffff;fill-opacity:1;fill-rule:nonzero;stroke:none"
         id="path154" />
      <path
         d="m 1612.95,2422.19 c 14.02,15.72 28.37,14.64 28.37,14.64 l 2.46,-13.32 c 0,0 -11.07,-0.36 -19.73,-10.06 -3.77,-4.23 -5.67,-8.65 -5.67,-12.61 0,-3.28 1.28,-6.14 3.84,-8.43 7,-6.23 18.95,0.7 26.43,3.7 5.76,2.38 13.94,5.71 22.11,5.71 6.11,0 12.4,-1.73 18.17,-6.88 6.71,-6.01 10.09,-13.54 10.09,-21.46 0,-8.58 -3.34,-16.2 -10.04,-23.71 -12.89,-14.43 -30.2,-16 -30.2,-16 l -3.45,13.51 c 10.22,2.36 17.93,6.28 22.63,11.54 3.68,4.12 5.49,8.74 5.49,12.8 0,3.81 -1.59,7.36 -4.71,10.15 -2.52,2.25 -5.6,3.06 -8.94,2.99 -6.49,0 -14.25,-3.71 -20.68,-6.38 -12.25,-5.06 -25.2,-9.15 -36.79,1.2 -5.89,5.26 -9.03,11.88 -9.03,19.24 0,7.77 3.09,16.02 9.65,23.37"
         style="fill:#ffffff;fill-opacity:1;fill-rule:nonzero;stroke:none"
         id="path156" />
      <path
         d="m 2469.06,1842.73 c -4.55,-0.02 -12.28,2.61 -15.2,10.14 -0.73,1.91 -1.04,3.84 -1.02,5.81 0.05,5.52 2.68,11.27 5.36,17.31 l 1.72,3.89 29.1,-13.08 -3.22,-7.8 c -5.43,-12.34 -8.94,-16.26 -16.74,-16.27 z m -59.62,59.88 38.18,-17.27 -1.9,-4.3 c -5.18,-11.75 -7.18,-13.66 -23.1,-13.73 l -28.92,-0.02 -6.88,-15.59 33.33,0.11 c 6.74,0 11.99,-0.01 16.11,1.57 1.32,0.52 2.84,1.36 4.25,2.5 -0.09,-0.87 -0.39,-1.71 -0.39,-2.57 -0.04,-3.71 0.65,-7.39 2.05,-10.61 4.55,-10.67 17,-15.89 26.1,-15.87 16.07,0.02 22.22,9.63 30.01,27.31 0.29,0.66 9.4,21.64 9.4,21.64 l -91.82,41.36 -6.42,-14.53"
         style="fill:#ffffff;fill-opacity:1;fill-rule:nonzero;stroke:none"
         id="path158" />
      <path
         d="m 2392.26,1731.05 c -8.04,0 -15.56,3.09 -23.4,9.35 -7.95,6.35 -16.39,16.24 -16.39,28.86 0,8.77 4.77,17.13 12.09,26.31 l 6.7,8.38 57.67,-46.03 -4.41,-5.52 c -10.71,-13.42 -18.02,-21.35 -32.26,-21.35 z m -36,76.03 c -10.47,-13.11 -18.42,-24.83 -18.42,-39.98 0,-12.85 5.84,-27.47 20.62,-39.26 9.78,-7.82 20.86,-12.06 32.26,-12.06 14.06,0 25.32,4.22 42.82,26.15 l 15.94,20.06 -78.91,63.01 -14.31,-17.92"
         style="fill:#ffffff;fill-opacity:1;fill-rule:nonzero;stroke:none"
         id="path160" />
      <path
         d="m 2346.87,1614.98 c -93.99,-33.25 -181.7,-30.97 -256.54,-14.25 2.45,33.42 16.27,69.14 37.42,75.78 164.83,51.12 284.86,204.78 284.86,385.88 0,222.76 -181.57,403.98 -404.74,403.98 -223.17,0 -404.74,-181.22 -404.74,-403.98 0,-123.92 57.89,-241.63 155.33,-317.96 -23.15,-10.17 -42.87,-26.61 -57.15,-47.09 -7.39,5.03 -14.51,10.25 -21.1,15.66 l -3.68,-3.69 c 4.41,-5.32 11.23,-12.35 19.46,-20.22 -12,-20.18 -18.95,-43.67 -18.95,-68.79 0,-3.91 0.26,-7.76 0.6,-11.59 -145.01,105.68 -231.17,273.67 -231.17,453.68 0,309.54 251.85,561.36 561.4,561.36 309.55,0 561.4,-251.82 561.4,-561.36 0,-177.3 -81.07,-340.19 -222.4,-447.41 z m -325.69,-132.51 c -77.57,0 -174.37,26.37 -240.9,65.61 -20.15,11.89 -44.18,34 -44.18,71.81 0,10.2 2.02,19.94 5.54,28.9 24.83,-20.53 50.5,-39.77 66.59,-48.58 3.71,-2.03 5.84,-3.02 10.16,-3.02 10.33,0 18.7,8.41 18.7,18.78 0,7.93 -4.3,14.36 -11.4,17.46 -13.76,6.02 -42.55,17.92 -73.55,33.99 14.33,18.92 36.91,31.21 62.35,31.21 11.63,0 22.83,-2.49 33.27,-7.42 l 21.26,-12.39 c 67.6,-41.29 241.52,-147.17 451.5,-88.99 -79.71,-71.92 -177.87,-107.36 -299.34,-107.36 z m 66.49,-47.25 c -21.33,0 -38.83,-15.1 -38.83,-38.27 0,-22.67 17.74,-38.26 38.83,-38.26 3.21,0 6.27,0.54 9.23,1.31 -4.45,-32.08 -41.8,-67.99 -90,-84.12 -47.81,16.01 -85.15,52.19 -90.09,84.09 2.96,-0.76 5.99,-1.28 9.19,-1.28 23,0 38.82,16.11 38.82,38.26 0,21.13 -16.59,37.71 -37.99,38.18 6.54,11.94 12.79,24.62 17.42,38.24 26.52,-4.61 52.63,-7.14 76.93,-7.14 19.91,0 39.26,1.08 58.16,3 2.5,-10.95 6.22,-22.39 10.58,-34.21 -0.75,0.04 -1.48,0.2 -2.25,0.2 z m -274.41,304.54 c 39.91,0 77.26,-20.47 99.15,-53.26 -19.18,4.86 -38,11.19 -56.37,19.02 l -0.05,-0.11 -0.61,0.34 c -12.84,6.05 -26.59,9.12 -40.89,9.12 -31.79,0 -59.93,-15.59 -77.29,-39.43 -7.33,4.05 -14.63,8.31 -21.81,12.77 21.52,31.1 57.34,51.55 97.87,51.55 z m 157.98,-79.64 c -4.92,-3.67 -8.9,-8.06 -11.71,-12.89 -14.65,7.1 -33.04,16.27 -45.07,23 17.04,-3.77 39.28,-8.55 56.78,-10.11 z m 122.88,7.62 c -11.62,-16.58 -18.54,-39.64 -20.6,-62.98 -36.69,9.46 -69.98,22.16 -99.02,35.4 5.53,10.69 21.32,18.25 33.37,18.25 29.6,0 58.44,3.28 86.25,9.33 z m -86.25,6.91 c -24.77,0 -49.19,2.39 -73.12,6.96 -23.08,45.26 -70.38,74.39 -121.49,74.39 -12.55,0 -24.66,-1.84 -36.21,-5.02 -98.21,72.99 -156.81,189.06 -156.81,311.41 0,213.8 173.89,387.74 387.63,387.74 213.73,0 387.63,-173.94 387.63,-387.74 0,-213.8 -173.9,-387.74 -387.63,-387.74 z m -194.61,-173.79 c -65.68,0 -119.11,53.57 -119.11,119.44 0,20.63 5.25,40.06 14.47,57.02 6.14,-5.57 12.69,-11.35 19.5,-17.18 -5.79,-12.24 -9.13,-25.85 -9.13,-40.25 0,-35.83 18.08,-65.43 52.27,-85.6 19.63,-11.58 41.86,-22.03 65.39,-31.13 -7.64,-1.52 -15.45,-2.3 -23.39,-2.3 z m 773.12,561.53 c 0,318.49 -259.52,577.6 -578.51,577.6 -318.98,0 -578.5,-259.11 -578.5,-577.6 0,-191.07 94.35,-369.16 252.43,-477.08 15.55,-57.88 68.51,-100.69 131.46,-100.69 17.03,0 33.53,3.21 49.21,9.28 21.17,-6.99 43.04,-12.78 64.84,-17.27 -6.13,-17.54 -15.09,-34.17 -23.64,-48.55 0,0 0.19,0.04 0.48,0.1 -0.17,-0.11 -0.34,-0.19 -0.5,-0.3 l 12.05,-12.05 c 3.08,1.68 6.56,2.73 10.3,2.73 11.91,0 21.6,-9.7 21.6,-21.61 0,-11.91 -9.69,-21.6 -21.6,-21.6 -10.39,0 -19.52,6.66 -24.3,13.79 0,0 -2.81,-9.71 -2.81,-22.52 -0.08,-41.49 45.2,-88.89 108.01,-108.88 62.76,19.54 108.05,67.28 108.02,108.8 0,14.29 -2.81,22.6 -2.81,22.6 -4.82,-5.81 -12.65,-13.79 -24.44,-13.79 -11.91,0 -21.61,9.69 -21.61,21.6 0,11.91 9.7,21.61 21.61,21.61 4.18,0 8.04,-1.24 11.34,-3.3 l 11.69,11.68 c 0.28,-0.07 0.45,-0.11 0.45,-0.11 -6.61,15.81 -11.44,30.35 -14.72,44.31 104.01,14.01 191.76,58.03 261.56,131.4 l -0.05,0.07 c 145.18,110.32 228.44,277.68 228.44,459.78"
         style="fill:#ffffff;fill-opacity:1;fill-rule:nonzero;stroke:none"
         id="path162" />
    </g>
  </g>
</svg>
